<svg id="Calque_2" data-name="Calque 2" xmlns="http://www.w3.org/2000/svg" xmlns:xlink="http://www.w3.org/1999/xlink" width="829.76" height="1000" viewBox="0 0 829.76 1000"><defs><style>.cls-1{fill:none;}.cls-2{clip-path:url(#clip-path);}.cls-3{opacity:0.15;}.cls-4{fill:#9c9b9b;}</style><clipPath id="clip-path"><rect class="cls-1" y="8.3" width="829.76" height="982.35"/></clipPath></defs><g class="cls-2"><g class="cls-3"><path class="cls-4" d="M-105.37,36.55V8.3h47.08V36.55H-1.8c-3.91,24.79-16.12,46.5-34.52,65.91l40.8,15.69v47.08l-62.77-25.11v59.63l-47.08-31.69V152.68c-17.85,5.23-37.86,8.23-59.63,9.41v-40.8c43.14-4,74.75-18.45,94.15-43.94h-87.88V36.55Z"/><path class="cls-4" d="M4.9,297.76V268H-41.89v25.53c0,29.78-12.76,46.79-51,46.79h-42.54v46.8h72.32C-29.13,387.1,4.9,348.81,4.9,297.76Z"/><path class="cls-4" d="M38.79,431.51A39.12,39.12,0,0,1-.33,470.63a39.12,39.12,0,0,1-39.13-39.12A39.12,39.12,0,0,1-.33,392.39,39.12,39.12,0,0,1,38.79,431.51ZM-.33,420a11.53,11.53,0,0,0-11.51,11.51A11.53,11.53,0,0,0-.33,443a11.52,11.52,0,0,0,11.5-11.51A11.52,11.52,0,0,0-.33,420Z"/><path class="cls-4" d="M49.63,963.43v-40.8H137.5c-19.4-25.49-51-39.93-94.15-43.94v-40.8c21.78,1.18,41.78,4.19,59.63,9.42V831.92l47.08-31.69v59.63l62.77-25.11v47.08L172,897.52c18.4,19.41,30.61,41.12,34.52,65.91H150.06v28.25H103V963.43Z"/><path class="cls-4" d="M194.94,126.34c0-23.78-17-50-56.72-50H126.87v31.2h8.51c17,0,22.69,5.67,22.69,19.86v11.34H39v34h156V126.34Z"/><path class="cls-4" d="M111.58,124.59V96.23C111.58,64,118.82,8.3,38.07,8.3l.39,36.88h.32c39.92,0,35.36,24.53,35.91,52.22,0,.55,0,26.63,0,27.19Z"/><path class="cls-4" d="M145.19,612.88H72.87v46.8h42.54c38.29,0,51.05,17,51.05,46.8V732h46.8V702.22C213.26,651.17,179.22,612.88,145.19,612.88Z"/><rect class="cls-4" x="79.21" y="750.75" width="80.49" height="38.02" transform="translate(-424.17 211.85) rotate(-35.44)"/><rect class="cls-4" x="45.64" y="703.32" width="80.49" height="38.02" transform="translate(-402.89 183.6) rotate(-35.44)"/><rect class="cls-4" x="40.73" y="205.39" width="157.57" height="39.39"/><polygon class="cls-4" points="40.73 312.31 67.24 312.31 198.3 312.31 198.3 272.92 40.73 272.92 40.73 297.5 40.73 312.31"/><polygon class="cls-4" points="90.18 340.44 40.73 340.44 40.73 379.84 100.05 379.84 198.3 379.84 198.3 340.44 90.18 340.44"/><path class="cls-4" d="M123.87,408.15H57.8a62.34,62.34,0,0,1,4.53,23.36A62.42,62.42,0,0,1,57.77,455h49.08c25.53,0,46.8,8.5,46.8,46.79v25.53H38.79v51.05H141.4a66,66,0,0,1-.45-7.61A67,67,0,0,1,204.7,503.9V493.23C204.7,433.68,170.67,408.15,123.87,408.15Z"/><path class="cls-4" d="M247.14,568.47A39.12,39.12,0,1,1,208,529.35,39.12,39.12,0,0,1,247.14,568.47ZM208,557a11.51,11.51,0,1,0,11.5,11.5A11.52,11.52,0,0,0,208,557Z"/><path class="cls-4" d="M466.33,963.43v-40.8h87.88c-19.41-25.49-51-39.93-94.16-43.94v-40.8c21.78,1.18,41.79,4.19,59.63,9.42V831.92l47.08-31.69v59.63l62.77-25.11v47.08l-40.8,15.69c18.4,19.41,30.62,41.12,34.52,65.91H566.76v28.25H519.68V963.43Z"/><path class="cls-4" d="M611.65,126.34c0-23.78-17-50-56.73-50H543.58v31.2h8.51c17,0,22.69,5.67,22.69,19.86v11.34H455.66v34h156V126.34Z"/><path class="cls-4" d="M528.28,124.59V96.23c0-32.21,7.24-87.93-73.51-87.93l.39,36.88h.33c39.91,0,35.36,24.53,35.9,52.22,0,.55,0,26.63,0,27.19Z"/><path class="cls-4" d="M630,702.22c0-51.05-34-89.34-68.07-89.34H489.57v46.8h42.54c38.29,0,51,17,51,46.8V732H630Z"/><rect class="cls-4" x="495.91" y="750.75" width="80.49" height="38.02" transform="translate(-346.98 453.45) rotate(-35.44)"/><rect class="cls-4" x="462.34" y="703.32" width="80.49" height="38.02" transform="translate(-325.71 425.2) rotate(-35.44)"/><rect class="cls-4" x="457.43" y="205.39" width="157.57" height="39.39"/><polygon class="cls-4" points="457.43 312.31 483.95 312.31 615 312.31 615 272.92 457.43 272.92 457.43 297.5 457.43 312.31"/><polygon class="cls-4" points="506.88 340.44 457.43 340.44 457.43 379.84 516.75 379.84 615 379.84 615 340.44 506.88 340.44"/><path class="cls-4" d="M540.57,408.15H474.5a62.38,62.38,0,0,1,0,46.8h49.09c25.52,0,46.79,8.5,46.79,46.79v25.53H455.49v51.05H558.1a68.35,68.35,0,0,1-.45-7.61A67,67,0,0,1,621.4,503.9V493.23C621.4,433.68,587.37,408.15,540.57,408.15Z"/><path class="cls-4" d="M624.72,607.59a39.12,39.12,0,1,1,39.12-39.12A39.11,39.11,0,0,1,624.72,607.59Zm0-50.62a11.51,11.51,0,1,0,11.51,11.5A11.52,11.52,0,0,0,624.72,557Z"/><path class="cls-4" d="M311.33,36.55V8.3h47.08V36.55H414.9c-3.91,24.79-16.12,46.5-34.52,65.91l40.8,15.69v47.08l-62.77-25.11v59.63l-47.08-31.69V152.68c-17.85,5.23-37.85,8.23-59.63,9.41v-40.8c43.14-4,74.75-18.45,94.16-43.94H258V36.55Z"/><path class="cls-4" d="M403.3,862.88v-35.7h-156v34H366.43v11.35c0,14.18-5.68,19.85-22.69,19.85h-8.51v31.2h11.34c39.71,0,56.73-26.19,56.73-50Z"/><path class="cls-4" d="M283.06,875.39c0,.56,0,26.64,0,27.19-.55,27.69,4,52.23-35.9,52.23h-.33l-.39,36.87c80.75,0,73.51-55.71,73.51-87.92V875.39Z"/><rect class="cls-4" x="308.8" y="189.98" width="38.02" height="80.49" transform="translate(-49.84 363.83) rotate(-54.56)"/><rect class="cls-4" x="275.23" y="237.4" width="38.02" height="80.49" transform="translate(-102.58 356.4) rotate(-54.56)"/><rect class="cls-4" x="249.08" y="755.2" width="157.57" height="39.39"/><polygon class="cls-4" points="249.08 702.48 249.08 727.07 406.65 727.07 406.65 687.67 275.6 687.67 249.08 687.67 249.08 702.48"/><polygon class="cls-4" points="308.4 620.15 249.08 620.15 249.08 659.54 298.53 659.54 406.65 659.54 406.65 620.15 308.4 620.15"/><path class="cls-4" d="M349.3,429.27a65.72,65.72,0,0,1,.45-7.6H247.14v51.05H362v25.52c0,38.29-21.27,46.8-46.79,46.8H266.12a62.36,62.36,0,0,1,0,46.79h66.07c46.8,0,80.83-25.52,80.83-85.08V496.08A67,67,0,0,1,349.3,429.27Z"/><path class="cls-4" d="M455.49,431.51a39.12,39.12,0,1,1-39.12-39.12A39.11,39.11,0,0,1,455.49,431.51ZM416.37,420a11.51,11.51,0,1,0,11.51,11.51A11.53,11.53,0,0,0,416.37,420Z"/><path class="cls-4" d="M421.61,297.76V268h-46.8v25.53c0,29.78-12.76,46.79-51.05,46.79H281.22v46.8h72.32C387.57,387.1,421.61,348.81,421.61,297.76Z"/><path class="cls-4" d="M728,36.55V8.3h47.07V36.55h56.5c-3.91,24.79-16.13,46.5-34.53,65.91l40.8,15.69v47.08l-62.77-25.11v59.63L728,168.06V152.68c-17.85,5.23-37.86,8.23-59.64,9.41v-40.8c43.14-4,74.75-18.45,94.16-43.94H674.68V36.55Z"/><path class="cls-4" d="M820,862.88v-35.7H664v34H783.13v11.35c0,14.18-5.67,19.85-22.69,19.85h-8.51v31.2h11.34c39.71,0,56.73-26.19,56.73-50Z"/><path class="cls-4" d="M699.76,875.39c0,.56,0,26.64,0,27.19-.54,27.69,4,52.23-35.9,52.23h-.33l-.39,36.87c80.76,0,73.51-55.71,73.51-87.92V875.39Z"/><rect class="cls-4" x="725.5" y="189.98" width="38.02" height="80.49" transform="translate(125.27 703.34) rotate(-54.56)"/><rect class="cls-4" x="691.93" y="237.4" width="38.02" height="80.49" transform="matrix(0.58, -0.81, 0.81, 0.58, 72.52, 695.92)"/><rect class="cls-4" x="665.78" y="755.2" width="157.57" height="39.39"/><polygon class="cls-4" points="665.78 702.48 665.78 727.07 823.35 727.07 823.35 687.67 692.3 687.67 665.78 687.67 665.78 702.48"/><polygon class="cls-4" points="725.1 620.15 665.78 620.15 665.78 659.54 715.23 659.54 823.35 659.54 823.35 620.15 725.1 620.15"/><path class="cls-4" d="M766,429.27a68,68,0,0,1,.44-7.6H663.84v51.05H778.71v25.52c0,38.29-21.28,46.8-46.8,46.8H682.83a62.48,62.48,0,0,1,0,46.79h66.07c46.79,0,80.83-25.52,80.83-85.08V496.08A67,67,0,0,1,766,429.27Z"/><path class="cls-4" d="M872.19,431.51a39.12,39.12,0,1,1-39.12-39.12A39.11,39.11,0,0,1,872.19,431.51ZM833.07,420a11.51,11.51,0,1,0,11.51,11.51A11.52,11.52,0,0,0,833.07,420Z"/><path class="cls-4" d="M838.31,297.76V268h-46.8v25.53c0,29.78-12.76,46.79-51,46.79H697.92v46.8h72.32C804.28,387.1,838.31,348.81,838.31,297.76Z"/></g></g></svg>