<svg id="Calque_1" data-name="Calque 1" xmlns="http://www.w3.org/2000/svg" width="687.88" height="649.38" viewBox="0 0 687.88 649.38" style="fill:white;"><g id="partition"><path d="M506.39,648.36a226,226,0,0,1-26.72,2.58c-5.33.21-10.67.22-16,.06v29.56c31.75,1.25,63.66-3.69,93.93-13.4q6.33-2.05,12.31-4.45l-25.77-22.47A261.41,261.41,0,0,1,506.39,648.36Z" transform="translate(-156.61 -175.31)"/><path d="M227.4,651c1.27-1,2.57-1.94,3.88-2.87-27.86,9.87-52.77,24.33-74.67,46,12.92-7.94,26.18-15.35,40.22-20.92q5.85-2.36,11.82-4.33A122,122,0,0,1,227.4,651Z" transform="translate(-156.61 -175.31)"/><path d="M681.44,562.44V588a234.52,234.52,0,0,1,32.27-17A379,379,0,0,1,755.6,556c29-8.6,58.51-15,88.89-16.67C794.94,531.59,730.06,540.73,681.44,562.44Z" transform="translate(-156.61 -175.31)"/><path d="M156.61,812.54c12.92-7.94,26.18-15.35,40.22-20.91q3.36-1.36,6.76-2.59-2.78-3.82-5.17-7.84A189.43,189.43,0,0,0,156.61,812.54Z" transform="translate(-156.61 -175.31)"/><path d="M681.44,680.82v25.57a234.52,234.52,0,0,1,32.27-17,379,379,0,0,1,41.89-15.09c29-8.6,58.51-15,88.89-16.67C794.94,650,730.06,659.11,681.44,680.82Z" transform="translate(-156.61 -175.31)"/><path d="M627.82,713.2c-7.4,5.36-14.73,10.78-22.14,15.93-29.33,21-63.71,32.6-99.29,37.62a226,226,0,0,1-26.72,2.58A231.72,231.72,0,0,1,456.1,769c-1.27,3-2.68,5.88-4.26,8.76a107.09,107.09,0,0,1-13.12,18.85c39.8,5.81,80.64,1.15,118.86-11.11,32-10.4,57-27.12,82.47-48.52q4-3.37,8.07-6.65a22.17,22.17,0,0,1-3.38-2.42Z" transform="translate(-156.61 -175.31)"/><path d="M293.57,521.29a262.65,262.65,0,0,0-57.8,6.86c-27.8,6.47-55.63,16.21-79.16,32.51,35-14.06,71.86-19.38,108.89-20.28,5.07,0,11.33,0,16.35.32l2.72.12,2.7.22,5.41.43,5.39.59,2.69.28,2.68.38,5.36.75c3.28.52,6.54,1.11,9.79,1.74V522.56C310.26,521.76,301.87,521.31,293.57,521.29Z" transform="translate(-156.61 -175.31)"/><path d="M745.89,424.16A355.64,355.64,0,0,0,681.44,437v23.8c36.36-15.52,76.75-25.51,116.28-29.51a270.06,270.06,0,0,1,44.88-.05C811.61,421.49,778.08,420.6,745.89,424.16Z" transform="translate(-156.61 -175.31)"/><path d="M537,424c1.69-1,3.35-2,5-3V385.17a224.29,224.29,0,0,1-29.19,18.09q-2.21,1.11-4.44,2.17l24.08,21.21Q534.77,425.37,537,424Z" transform="translate(-156.61 -175.31)"/><path d="M841,326.68a252.91,252.91,0,0,0-27.93-9.74,44,44,0,0,1-2.33,5.53C820.83,323.51,830.9,325,841,326.68Z" transform="translate(-156.61 -175.31)"/><path d="M302.56,414.11c-49.32-7.61-100.7.35-145.95,20.84,43.21-9.12,88.08-12.1,131.45-2.85,10.25,2.11,20.39,4.79,30.53,7.56V416.81C313.26,415.83,307.92,414.91,302.56,414.11Z" transform="translate(-156.61 -175.31)"/><path d="M534.74,256c-17.26,13.17-34,26.42-53.25,36.13-20.36,10.37-42.37,16.54-65,20.93a245.48,245.48,0,0,1-58,4c-21.85-1.13-43.3-5.73-64.9-9.68-46.47-9.27-90.38-8.05-135.45,7.15,29.59-3,59.11-3.53,88.33,1.72,29.3,5,57.45,15.68,86.66,21.9,32.67,7.3,66.8,7,99.56.8,19.41-3.74,38.75-9.2,56.72-17.53a226.16,226.16,0,0,0,26.33-14.48c9-5.88,17.7-12.41,26.27-19.05V250.58Q538.35,253.25,534.74,256Z" transform="translate(-156.61 -175.31)"/><path d="M841.35,222.66c-8.69-3-17.32-6.27-26-9.48v5.53C824,220.26,832.64,221.73,841.35,222.66Z" transform="translate(-156.61 -175.31)"/></g><path id="Musical_nep" data-name="Musical nep" d="M562,474.55a2.15,2.15,0,0,1-3.57,1.61L456.86,386.7a50.21,50.21,0,0,0-42.66-11.55c-33.65,6.61-75.61,21.38-75.61,21.38V640.4c-4.73-.44-9.55-.66-14.43-.66-66,0-119.53,41.4-119.53,92.47s53.52,92.48,119.53,92.48,119.53-41.4,119.53-92.48l0-26.47V538.45a5.6,5.6,0,0,1,9.23-4.27l205,178.69a2.15,2.15,0,0,0,3.56-1.62V356.57c33-14.32,69.95-22.07,114.41-29.82,10.74-1.87,19.52-12.34,19.52-23.24V199.71a24.42,24.42,0,0,0-25.53-24.37C625.4,181.66,562,240.16,562,240.16Z" transform="translate(-156.61 -175.31)"/></svg>