<svg id="Calque_1" data-name="Calque 1" xmlns="http://www.w3.org/2000/svg" width="590.74" height="649.38" viewBox="0 0 590.74 649.38" style="fill:white"><path id="Musical_nep" data-name="Musical nep" d="M562,474.55a2.15,2.15,0,0,1-3.57,1.61L456.86,386.7a50.21,50.21,0,0,0-42.66-11.55c-33.65,6.61-75.61,21.38-75.61,21.38V640.4c-4.73-.44-9.55-.66-14.43-.66-66,0-119.53,41.4-119.53,92.47s53.52,92.48,119.53,92.48,119.53-41.4,119.53-92.48l0-26.47V538.45a5.6,5.6,0,0,1,9.23-4.27l205,178.69a2.15,2.15,0,0,0,3.56-1.62V356.57c33-14.32,69.95-22.07,114.41-29.82,10.74-1.87,19.52-12.34,19.52-23.24V199.71a24.42,24.42,0,0,0-25.53-24.37C625.4,181.66,562,240.16,562,240.16Z" transform="translate(-204.63 -175.31)"/></svg>